<?xml version="1.0" encoding="utf-8"?>
<!-- Generator: Adobe Illustrator 25.4.1, SVG Export Plug-In . SVG Version: 6.00 Build 0)  -->
<svg version="1.1" id="Layer_1" xmlns="http://www.w3.org/2000/svg" xmlns:xlink="http://www.w3.org/1999/xlink" x="0px" y="0px"
	 viewBox="0 0 300 137.22" style="enable-background:new 0 0 300 137.22;" xml:space="preserve">
<style type="text/css">
	.st0{fill-rule:evenodd;clip-rule:evenodd;fill:#233664;}
	.st1{fill:#233664;}
</style>
<g>
	<path class="st0" d="M149.7,14.61c14.12,0,26.6,6.82,34.18,17.26h-68.36C123.09,21.43,135.58,14.61,149.7,14.61"/>
	<path class="st0" d="M183.7,81.31c-8.13,11.33-20.41,18.55-34.14,18.55c-13.73,0-26.01-7.22-34.14-18.55H183.7z"/>
	<path class="st1" d="M283.99,134.1v-12.32h9.12v2.08h-6.62v2.74h6.16v2.08h-6.16v3.34h6.87v2.08H283.99z M279.45,129.56l2.41,0.74
		c-0.37,1.36-0.98,2.36-1.85,3.02c-0.86,0.66-1.95,0.98-3.27,0.98c-1.64,0-2.98-0.56-4.04-1.68c-1.05-1.12-1.58-2.65-1.58-4.59
		c0-2.05,0.53-3.65,1.59-4.78c1.06-1.13,2.45-1.7,4.18-1.7c1.51,0,2.73,0.45,3.67,1.34c0.56,0.53,0.98,1.29,1.26,2.28l-2.46,0.59
		c-0.15-0.64-0.45-1.14-0.91-1.51c-0.46-0.37-1.03-0.55-1.69-0.55c-0.92,0-1.66,0.33-2.23,0.98c-0.57,0.65-0.85,1.72-0.85,3.18
		c0,1.55,0.28,2.66,0.84,3.32c0.56,0.66,1.29,0.99,2.19,0.99c0.66,0,1.23-0.21,1.71-0.63C278.9,131.12,279.24,130.46,279.45,129.56
		 M261.63,126.99h1.84c1.19,0,1.94-0.05,2.23-0.15c0.3-0.1,0.53-0.27,0.7-0.52c0.17-0.25,0.25-0.56,0.25-0.93
		c0-0.42-0.11-0.75-0.33-1c-0.22-0.26-0.53-0.42-0.94-0.48c-0.2-0.03-0.81-0.04-1.82-0.04h-1.94V126.99z M259.14,134.1v-12.32h5.24
		c1.31,0,2.27,0.11,2.87,0.33c0.6,0.22,1.08,0.61,1.44,1.18c0.36,0.57,0.54,1.21,0.54,1.94c0,0.93-0.27,1.69-0.81,2.29
		c-0.54,0.6-1.35,0.98-2.43,1.14c0.54,0.31,0.98,0.66,1.32,1.03c0.35,0.38,0.82,1.05,1.41,2l1.51,2.4h-2.98l-1.78-2.69
		c-0.64-0.95-1.08-1.56-1.31-1.81c-0.24-0.25-0.49-0.42-0.75-0.51c-0.27-0.09-0.68-0.14-1.26-0.14h-0.51v5.15H259.14z M247.66,134.1
		v-12.32h9.12v2.08h-6.63v2.74h6.16v2.08h-6.16v3.34h6.87v2.08H247.66z M233.29,134.1v-12.32h3.74l2.21,8.4l2.18-8.4h3.75v12.32
		h-2.31l-0.01-9.7l-2.43,9.7h-2.4l-2.42-9.7l-0.01,9.7H233.29z M218.96,134.1v-12.32h3.74l2.21,8.4l2.18-8.4h3.75v12.32h-2.31
		l-0.01-9.7l-2.43,9.7h-2.4l-2.42-9.7l-0.01,9.7H218.96z M207.66,127.93c0,1.4,0.32,2.46,0.97,3.18c0.64,0.72,1.47,1.08,2.46,1.08
		c0.99,0,1.81-0.36,2.45-1.07c0.64-0.72,0.96-1.79,0.96-3.22c0-1.41-0.31-2.47-0.93-3.16c-0.62-0.7-1.44-1.05-2.47-1.05
		c-1.03,0-1.86,0.35-2.48,1.05C207.97,125.45,207.66,126.51,207.66,127.93 M205.09,128.01c0-1.26,0.19-2.31,0.57-3.17
		c0.28-0.63,0.66-1.19,1.15-1.69c0.48-0.5,1.02-0.87,1.59-1.11c0.77-0.32,1.66-0.49,2.66-0.49c1.82,0,3.27,0.56,4.36,1.69
		c1.09,1.13,1.63,2.7,1.63,4.71c0,1.99-0.54,3.55-1.62,4.68c-1.08,1.13-2.53,1.69-4.34,1.69c-1.83,0-3.29-0.56-4.37-1.68
		C205.63,131.52,205.09,129.98,205.09,128.01 M201.06,129.56l2.41,0.74c-0.37,1.36-0.99,2.36-1.85,3.02
		c-0.86,0.66-1.95,0.98-3.27,0.98c-1.64,0-2.98-0.56-4.04-1.68c-1.05-1.12-1.58-2.65-1.58-4.59c0-2.05,0.53-3.65,1.59-4.78
		c1.06-1.13,2.45-1.7,4.18-1.7c1.51,0,2.73,0.45,3.67,1.34c0.56,0.53,0.98,1.29,1.26,2.28l-2.46,0.59
		c-0.15-0.64-0.45-1.14-0.91-1.51c-0.46-0.37-1.03-0.55-1.69-0.55c-0.92,0-1.66,0.33-2.23,0.98c-0.57,0.65-0.86,1.72-0.86,3.18
		c0,1.55,0.28,2.66,0.84,3.32c0.56,0.66,1.29,0.99,2.19,0.99c0.66,0,1.23-0.21,1.71-0.63C200.51,131.12,200.86,130.46,201.06,129.56
		 M177.89,134.1v-12.32h8.47v2.08h-5.97v2.93h5.16v2.08h-5.16v5.23H177.89z M166.55,127.93c0,1.4,0.32,2.46,0.97,3.18
		c0.65,0.72,1.47,1.08,2.46,1.08c1,0,1.81-0.36,2.45-1.07c0.63-0.72,0.95-1.79,0.95-3.22c0-1.41-0.31-2.47-0.93-3.16
		c-0.62-0.7-1.44-1.05-2.47-1.05c-1.03,0-1.85,0.35-2.48,1.05C166.87,125.45,166.55,126.51,166.55,127.93 M163.99,128.01
		c0-1.26,0.19-2.31,0.56-3.17c0.28-0.63,0.66-1.19,1.15-1.69c0.49-0.5,1.02-0.87,1.59-1.11c0.77-0.32,1.65-0.49,2.66-0.49
		c1.82,0,3.27,0.56,4.36,1.69c1.09,1.13,1.63,2.7,1.63,4.71c0,1.99-0.54,3.55-1.62,4.68c-1.08,1.13-2.53,1.69-4.34,1.69
		c-1.83,0-3.29-0.56-4.37-1.68C164.53,131.52,163.99,129.98,163.99,128.01 M149.79,126.99h1.84c1.19,0,1.94-0.05,2.23-0.15
		c0.3-0.1,0.53-0.27,0.7-0.52c0.17-0.25,0.25-0.56,0.25-0.93c0-0.42-0.11-0.75-0.33-1c-0.22-0.26-0.53-0.42-0.94-0.48
		c-0.2-0.03-0.81-0.04-1.82-0.04h-1.94V126.99z M147.3,134.1v-12.32h5.24c1.32,0,2.27,0.11,2.87,0.33c0.6,0.22,1.07,0.61,1.43,1.18
		c0.36,0.57,0.54,1.21,0.54,1.94c0,0.93-0.27,1.69-0.81,2.29c-0.54,0.6-1.35,0.98-2.43,1.14c0.54,0.31,0.98,0.66,1.32,1.03
		c0.35,0.38,0.82,1.05,1.41,2l1.5,2.4h-2.97l-1.78-2.69c-0.64-0.95-1.08-1.56-1.32-1.81c-0.24-0.25-0.49-0.42-0.75-0.51
		c-0.27-0.09-0.68-0.14-1.26-0.14h-0.51v5.15H147.3z M135.82,134.1v-12.32h9.12v2.08h-6.63v2.74h6.16v2.08h-6.16v3.34h6.87v2.08
		H135.82z M125.89,128.71v3.3h2.31c0.89,0,1.47-0.03,1.71-0.08c0.37-0.07,0.67-0.23,0.9-0.49c0.23-0.26,0.35-0.61,0.35-1.05
		c0-0.37-0.09-0.68-0.27-0.94c-0.18-0.26-0.44-0.45-0.78-0.56c-0.34-0.12-1.07-0.18-2.21-0.18H125.89z M125.89,123.83v2.84h1.63
		c0.97,0,1.57-0.01,1.8-0.04c0.42-0.05,0.76-0.2,1-0.44c0.24-0.24,0.37-0.56,0.37-0.96c0-0.38-0.11-0.69-0.32-0.93
		c-0.21-0.24-0.52-0.38-0.93-0.43c-0.25-0.03-0.96-0.04-2.12-0.04H125.89z M123.39,121.78h4.93c0.98,0,1.7,0.04,2.18,0.12
		c0.48,0.08,0.91,0.25,1.29,0.51c0.38,0.26,0.69,0.6,0.95,1.03c0.25,0.43,0.38,0.91,0.38,1.44c0,0.57-0.15,1.1-0.46,1.58
		c-0.31,0.48-0.73,0.84-1.26,1.08c0.75,0.22,1.32,0.59,1.73,1.12c0.4,0.53,0.6,1.15,0.6,1.86c0,0.56-0.13,1.11-0.39,1.64
		c-0.26,0.53-0.62,0.96-1.07,1.28c-0.45,0.32-1.01,0.51-1.67,0.58c-0.41,0.04-1.41,0.07-3,0.08h-4.2V121.78z M109.02,134.1v-12.32
		h3.74l2.21,8.4l2.18-8.4h3.75v12.32h-2.3l-0.01-9.7l-2.43,9.7h-2.4l-2.42-9.7l-0.01,9.7H109.02z M103.17,129.21l-1.71-4.56
		l-1.66,4.56H103.17z M107.73,134.1h-2.69l-1.06-2.8h-4.94l-1.02,2.8h-2.64l4.78-12.32h2.64L107.73,134.1z M84.2,134.1v-12.32h2.5
		v4.85h4.85v-4.85h2.49v12.32h-2.49v-5.39H86.7v5.39H84.2z M79.66,129.56l2.41,0.74c-0.37,1.36-0.99,2.36-1.85,3.02
		c-0.86,0.66-1.95,0.98-3.27,0.98c-1.64,0-2.98-0.56-4.04-1.68c-1.05-1.12-1.58-2.65-1.58-4.59c0-2.05,0.53-3.65,1.59-4.78
		c1.06-1.13,2.45-1.7,4.18-1.7c1.51,0,2.73,0.45,3.67,1.34c0.56,0.53,0.98,1.29,1.26,2.28l-2.46,0.59
		c-0.15-0.64-0.45-1.14-0.91-1.51c-0.47-0.37-1.03-0.55-1.69-0.55c-0.92,0-1.66,0.33-2.23,0.98c-0.57,0.65-0.86,1.72-0.86,3.18
		c0,1.55,0.28,2.66,0.84,3.32c0.56,0.66,1.29,0.99,2.19,0.99c0.66,0,1.23-0.21,1.71-0.63C79.11,131.12,79.45,130.46,79.66,129.56
		 M54.57,134.1v-12.32h2.41l5.07,8.26v-8.26h2.31v12.32h-2.49l-4.99-8.1v8.1H54.57z M48.68,129.21l-1.71-4.56l-1.66,4.56H48.68z
		 M53.24,134.1h-2.69l-1.06-2.8h-4.94l-1.02,2.8h-2.64l4.78-12.32h2.63L53.24,134.1z M37.28,121.78h2.49v12.32h-2.49V121.78z
		 M27.43,123.86v8.16h1.85c0.69,0,1.19-0.04,1.49-0.12c0.41-0.1,0.74-0.27,1-0.51c0.27-0.24,0.48-0.64,0.65-1.19
		c0.17-0.55,0.25-1.3,0.25-2.26c0-0.95-0.08-1.68-0.25-2.19c-0.17-0.51-0.4-0.91-0.7-1.19c-0.3-0.28-0.68-0.48-1.15-0.58
		c-0.34-0.08-1.02-0.12-2.03-0.12H27.43z M24.93,121.78h4.54c1.02,0,1.81,0.08,2.34,0.24c0.72,0.21,1.34,0.59,1.85,1.14
		c0.52,0.54,0.91,1.21,1.18,2c0.27,0.79,0.4,1.76,0.4,2.91c0,1.01-0.13,1.89-0.38,2.62c-0.31,0.9-0.74,1.62-1.32,2.18
		c-0.43,0.42-1.01,0.75-1.74,0.98c-0.55,0.18-1.28,0.26-2.2,0.26h-4.67V121.78z M12.51,134.1v-12.32h2.41l5.07,8.26v-8.26h2.31
		v12.32h-2.49l-4.99-8.1v8.1H12.51z M7.64,121.78h2.49v12.32H7.64V121.78z"/>
	<path class="st1" d="M119.22,22.32L119.22,22.32 M166.51,8.31l-1.41-0.44l-1.93,3.8l-0.33,0.64l-0.72-0.13l-1.27-0.23v0l-1.37-0.21
		l-0.8-0.12l-0.02-0.82l-0.14-4.53l-1.46-0.21l-1.3,4.05l-0.22,0.69l-0.72-0.01l-1.31-0.02l-1.38,0.02l-0.81,0.01l-0.16-0.8
		l-0.86-4.45l-1.47,0.03l-0.63,4.21l-0.11,0.72l-0.72,0.1l-1.28,0.19l-1.36,0.23l-0.8,0.14l-0.28-0.76l-1.57-4.26l-1.45,0.27
		l0.05,4.26l0.01,0.73L140,11.64l-1.23,0.39l-1.31,0.45l-0.77,0.26l-0.4-0.71l-2.22-3.95l-1.39,0.5l0.73,4.2l0.12,0.71l-0.65,0.33
		l-1.15,0.58v0l-1.22,0.66l-0.72,0.38l-0.51-0.64l-2.83-3.54l-1.29,0.71l1.4,4.02l0.24,0.68l-0.59,0.42l-1.05,0.76l-1.1,0.84
		l-0.64,0.49l-0.6-0.54l-3.36-3.05l-1.16,0.91l2.02,3.75l0.34,0.64l-0.51,0.51l-0.91,0.92l-0.95,1.01l-0.56,0.59l-0.68-0.44
		l-3.8-2.47l-1,1.08l2.59,3.38l0.44,0.57l-0.43,0.59l-0.77,1.07l-0.76,1.13l-0.46,0.67l-0.74-0.32l-4.15-1.83l-0.81,1.23l3.1,2.92
		l0.53,0.5l-0.32,0.65l-0.59,1.18v0l-0.58,1.24l-0.34,0.74l-0.79-0.2l-4.39-1.14l-0.61,1.34l3.52,2.39l0.6,0.41l-0.22,0.69
		l-0.39,1.25l-0.37,1.31l-0.22,0.78l-0.81-0.08l-4.52-0.42l-0.38,1.43l3.86,1.79l0.66,0.31l-0.1,0.72l-0.18,1.29l-0.15,1.36
		l-0.09,0.81l-0.81,0.05l-4.53,0.31l-0.15,1.47l4.1,1.15l0.7,0.2l0.01,0.73l0.03,1.29l0.07,1.39l0.04,0.81l-0.8,0.19l-4.41,1.03
		l0.08,1.47l4.23,0.48l0.72,0.08l0.13,0.72l0.23,1.27l0.29,1.36l0.17,0.79l-0.75,0.31l-4.2,1.72l0.32,1.44l4.25-0.21l0.72-0.03
		l0.24,0.68l0.44,1.24h0l0.49,1.26l0.3,0.76l-0.7,0.43l-3.87,2.37l0.55,1.37l4.16-0.88l0.71-0.15l0.35,0.63l0.63,1.16h0l0.69,1.17
		l0.41,0.7l-0.62,0.53l-3.44,2.96l0.76,1.26l3.97-1.54l0.67-0.26L111,82.1l0.79,1.02h0l0.88,1.07l0.52,0.63l-0.53,0.62l-2.92,3.47
		l0.95,1.13l3.67-2.15l0.63-0.37l0.53,0.49l0.96,0.89v0l1.02,0.89l0.61,0.54l-0.42,0.7l-2.33,3.89l1.12,0.96l3.28-2.71l0.56-0.46
		l0.6,0.4l1.07,0.71l1.18,0.74l0.69,0.43l-0.3,0.76l-1.67,4.22l1.26,0.77l2.8-3.2l0.48-0.55l0.66,0.3l1.18,0.54l1.26,0.53l0.76,0.32
		l-0.18,0.8l-0.98,4.43l1.37,0.56l2.26-3.61l0.38-0.62l0.7,0.19l1.24,0.34v0l1.35,0.33l0.79,0.19l-0.05,0.81l-0.26,4.53l1.44,0.33
		l1.65-3.93l0.28-0.67l0.72,0.08l1.28,0.13l1.39,0.1l0.81,0.06l0.09,0.81l0.47,4.51l1.48,0.1l1-4.13l0.17-0.71l0.72-0.04l1.29-0.07
		v0l1.38-0.11l0.81-0.07l0.21,0.79l1.19,4.38l1.46-0.14l0.32-4.25l0.06-0.72l0.71-0.16l1.26-0.28v0l1.35-0.34l0.79-0.2l0.34,0.75
		l1.87,4.13l1.42-0.37l-0.36-4.25l-0.06-0.73l0.69-0.26l1.55-0.59l1.56-0.66l0.73-0.31l0.45,0.66l2.57,3.74l1.34-0.62l-1.1-4.12
		l-0.18-0.7l0.62-0.38l1.12-0.69l1.14-0.75l0.68-0.45l0.56,0.59l3.13,3.28l1.22-0.83l-1.74-3.89l-0.3-0.66l0.55-0.47l0.99-0.86h0
		l1-0.92l0.6-0.55l0.64,0.49l3.62,2.74l1.08-1.01l-2.34-3.56l-0.4-0.61l0.46-0.56l0.84-1.01l0.85-1.07l0.5-0.63l0.72,0.38l4.01,2.13
		l0.9-1.17l-2.88-3.14l-0.49-0.54l0.37-0.62l0.67-1.13h0l0.66-1.19l0.4-0.71l0.77,0.26l4.3,1.46l0.7-1.29l-3.35-2.64l-0.57-0.45
		l0.26-0.67l0.48-1.22l0.46-1.28l0.28-0.77l0.8,0.13l4.47,0.75l0.49-1.39l-3.72-2.06l-0.64-0.35l0.15-0.71l0.28-1.29h0l0.25-1.34
		l0.15-0.8l0.81,0l4.54,0.02l0.26-1.46l-4-1.44l-0.68-0.24l0.04-0.72l0.07-1.31l0.04-1.36l0.02-0.81l0.8-0.13l4.48-0.7l0.02-1.48
		l-4.19-0.79l-0.71-0.13l-0.08-0.72l-0.14-1.31l-0.18-1.35l-0.11-0.81l0.77-0.25l4.31-1.41l-0.22-1.46l-4.25-0.1l-0.73-0.02
		l-0.19-0.7l-0.34-1.25l-0.4-1.32l-0.24-0.78l0.72-0.37l4.03-2.08l-0.45-1.41l-4.22,0.58l-0.71,0.1l-0.3-0.66l-0.55-1.2l-0.6-1.22
		l-0.36-0.73l0.65-0.48l3.64-2.7l-0.67-1.32l-4.07,1.25L191,35.26l-0.4-0.6l-0.72-1.07l-0.8-1.13l-0.47-0.66l0.57-0.58l3.17-3.25
		l-0.87-1.19l-3.82,1.88L187,28.97l-0.5-0.53l-0.9-0.96l-0.96-0.97l-0.57-0.58l0.47-0.67l2.6-3.72l-1.05-1.04l-3.47,2.47l-0.59,0.42
		l-0.57-0.44l-1.02-0.79h0l-1.12-0.82l-0.66-0.48l0.35-0.73l1.98-4.09l-1.2-0.86l-3.03,2.99l-0.51,0.51l-0.64-0.35l-1.16-0.63v0
		l-1.21-0.62l-0.73-0.37l0.23-0.78l1.3-4.35l-1.32-0.66l-2.51,3.44l-0.43,0.59l-0.68-0.24l-1.23-0.43l-1.31-0.42l-0.77-0.25
		l0.11-0.81L166.51,8.31z M164.89,5.77l2.98,0.92l0.79,0.24l-0.11,0.82l-0.59,4.51l0.55,0.18l0.02,0.01l0.56,0.2l2.57-3.51
		l0.49-0.66l0.73,0.36l2.8,1.39l0.74,0.37l-0.23,0.79l-1.31,4.36l0.51,0.26l0.02,0.01l0.52,0.28l3.1-3.06l0.58-0.58l0.67,0.48
		l2.54,1.82l0.67,0.48l-0.36,0.74l-1.98,4.09l0.46,0.34l0.02,0.01l0.47,0.36l3.55-2.53l0.67-0.48l0.58,0.58l2.22,2.2l0.58,0.58
		l-0.47,0.67l-2.61,3.72l0.4,0.41l0.02,0.02l0.4,0.43l3.91-1.92l0.74-0.37l0.48,0.67l1.83,2.53l0.48,0.66l-0.57,0.59l-3.18,3.26
		l0.33,0.47l0.01,0.02l0.33,0.49l4.17-1.28l0.79-0.24l0.37,0.74l1.41,2.79l0.37,0.73l-0.66,0.49l-3.66,2.71l0.25,0.52l0.01,0.02
		l0.25,0.54l4.32-0.59l0.81-0.11l0.25,0.78l0.94,2.98l0.25,0.78l-0.74,0.38l-4.04,2.09l0.17,0.55l0.01,0.03l0.16,0.57l4.35,0.11
		l0.83,0.02l0.12,0.81l0.45,3.09l0.12,0.81l-0.79,0.26L198,53.94l0.08,0.57l0,0.03l0.06,0.59l4.28,0.8l0.81,0.15l-0.01,0.82
		l-0.04,3.12l-0.01,0.83l-0.81,0.13l-4.49,0.7l-0.02,0.57v0.03l-0.03,0.59l4.09,1.48l0.78,0.28l-0.14,0.81L202,68.5l-0.14,0.81
		l-0.82,0l-4.55-0.03l-0.11,0.56l0,0.03l-0.12,0.58l3.81,2.11l0.72,0.4l-0.27,0.77l-1.03,2.95l-0.27,0.78l-0.81-0.13l-4.49-0.75
		l-0.2,0.54l-0.01,0.02l-0.22,0.55l3.42,2.7l0.64,0.51l-0.39,0.72l-1.49,2.74l-0.39,0.73l-0.78-0.27l-4.31-1.46l-0.28,0.5
		l-0.01,0.02l-0.3,0.51l2.94,3.21l0.56,0.61l-0.5,0.65l-1.91,2.47l-0.5,0.65l-0.72-0.38l-4.02-2.13l-0.36,0.45l-0.01,0.02
		l-0.38,0.45l2.39,3.64l0.45,0.69l-0.6,0.56l-2.28,2.13l-0.6,0.57l-0.65-0.5l-3.63-2.75l-0.42,0.39l-0.02,0.02l-0.44,0.39l1.78,3.98
		l0.34,0.75l-0.68,0.46l-2.59,1.74l-0.68,0.46l-0.57-0.6l-3.14-3.29l-0.48,0.32l-0.02,0.01l-0.5,0.31l1.12,4.22l0.21,0.79
		l-0.75,0.34l-2.84,1.31l-0.75,0.34l-0.47-0.68l-2.57-3.76l-0.86,0.37l-0.03,0.02l-0.87,0.33l0.37,4.33l0.07,0.82l-0.8,0.21
		l-3.02,0.79l-0.8,0.21l-0.34-0.75l-1.87-4.14l-0.55,0.14l-0.03,0l-0.58,0.13l-0.33,4.34l-0.06,0.82l-0.82,0.08l-3.11,0.29
		l-0.82,0.08l-0.22-0.8l-1.19-4.38l-0.57,0.05h-0.03l-0.59,0.03l-1.02,4.23l-0.2,0.8l-0.82-0.05l-3.11-0.21l-0.83-0.05l-0.08-0.82
		l-0.47-4.52l-0.57-0.04l-0.03,0l-0.59-0.06l-1.68,4.01l-0.32,0.76l-0.8-0.18l-3.04-0.7l-0.8-0.19l0.05-0.82l0.26-4.54l-0.55-0.13
		l-0.03-0.01l-0.57-0.15l-2.31,3.69l-0.44,0.7l-0.76-0.31l-2.89-1.18l-0.76-0.31l0.18-0.8l0.98-4.44l-0.53-0.22l-0.03-0.01
		l-0.54-0.24l-2.87,3.27l-0.54,0.62l-0.7-0.43l-2.66-1.63l-0.7-0.43l0.3-0.76l1.68-4.22l-0.49-0.31l-0.02-0.01l-0.49-0.33
		l-3.36,2.78l-0.63,0.53l-0.63-0.53l-2.37-2.03l-0.63-0.54l0.42-0.71l2.33-3.9l-0.43-0.38l-0.02-0.02l-0.43-0.4l-3.76,2.2
		l-0.71,0.42l-0.53-0.63l-2.01-2.39l-0.53-0.63l0.53-0.63l2.92-3.48l-0.37-0.44l-0.02-0.02l-0.36-0.47l-4.06,1.58l-0.77,0.3
		l-0.42-0.71l-1.61-2.68l-0.42-0.71l0.63-0.54l3.45-2.96l-0.29-0.49l-0.01-0.02l-0.29-0.52l-4.26,0.9l-0.8,0.17l-0.31-0.77
		l-1.16-2.9l-0.31-0.76l0.7-0.43l3.88-2.38l-0.21-0.53l-0.01-0.02l-0.2-0.56l-4.35,0.21l-0.82,0.04l-0.18-0.8l-0.68-3.05l-0.18-0.8
		L98,65.13l4.21-1.73l-0.12-0.57l0-0.03l-0.11-0.57l-4.32-0.49l-0.82-0.09l-0.05-0.82l-0.18-3.12l-0.05-0.82l0.81-0.19l4.43-1.03
		l-0.03-0.57v-0.03l-0.01-0.59l-4.19-1.18l-0.79-0.22l0.08-0.82l0.32-3.11l0.08-0.82l0.82-0.06l4.53-0.31l0.06-0.57l0-0.03
		l0.09-0.58l-3.95-1.83l-0.75-0.35l0.21-0.79l0.81-3.01l0.21-0.79l0.82,0.08l4.53,0.43l0.16-0.56l0.01-0.03l0.17-0.56l-3.6-2.44
		l-0.68-0.46l0.34-0.75l1.29-2.85l0.34-0.75l0.8,0.21l4.4,1.14l0.24-0.52l0.01-0.03l0.26-0.53l-3.17-2.98l-0.6-0.56l0.45-0.69
		l1.72-2.6l0.46-0.69l0.75,0.33l4.16,1.83l0.32-0.48l0.02-0.02l0.34-0.48l-2.65-3.46l-0.5-0.65l0.56-0.6l2.12-2.29l0.56-0.6
		l0.69,0.45l3.81,2.48l0.39-0.42l0.02-0.02l0.42-0.42l-2.06-3.83l-0.39-0.72l0.65-0.51l2.46-1.93l0.65-0.51l0.61,0.55l3.37,3.05
		l0.46-0.35l0.02-0.02l0.48-0.35l-1.43-4.12l-0.27-0.78l0.72-0.4l2.73-1.51l0.72-0.4l0.52,0.65l2.83,3.55l0.51-0.27l0.03-0.01
		l0.52-0.26l-0.75-4.3l-0.14-0.81l0.78-0.28l2.94-1.05l0.78-0.28l0.41,0.72l2.23,3.96l0.55-0.19l0.03-0.01l0.56-0.18l-0.05-4.35
		l-0.01-0.82l0.81-0.15l3.07-0.57l0.81-0.15l0.29,0.77l1.57,4.26l0.57-0.1l0.03,0l0.58-0.09l0.65-4.3l0.12-0.82l0.83-0.02l3.12-0.07
		l0.82-0.02l0.16,0.81l0.86,4.46l0.58-0.01h0.02l0.59,0.01l1.33-4.15l0.25-0.79l0.81,0.12l3.09,0.43l0.82,0.11l0.02,0.83l0.14,4.54
		l0.57,0.09l0.03,0.01l0.58,0.1l1.97-3.89l0.37-0.73L164.89,5.77z"/>
	<polygon class="st0" points="163.54,38.69 182.64,38.69 180.62,47.11 172.9,47.11 168.45,65.29 175.94,65.29 173.36,74.18 
		153.64,74.18 	"/>
	<polygon class="st0" points="140.57,38.69 159.67,38.69 157.65,47.11 149.93,47.11 145.48,65.29 152.97,65.29 150.39,74.18 
		130.66,74.18 	"/>
	<polygon class="st0" points="124.48,38.76 137.31,38.76 127.61,73.96 115.26,73.96 	"/>
</g>
</svg>
